<svg width="365" height="343" viewBox="0 0 365 343" fill="none" xmlns="http://www.w3.org/2000/svg">
<path d="M301.035 13.132C301.689 10.4829 305.456 10.4829 306.11 13.132L311.45 34.7658C314.242 46.074 323.071 54.9033 334.379 57.6948L356.014 63.0355C358.662 63.6895 358.662 67.4557 356.014 68.1096L334.379 73.4503C323.071 76.2419 314.242 85.0712 311.45 96.3793L306.11 118.014C305.456 120.662 301.689 120.662 301.035 118.014L295.695 96.3793C292.903 85.0711 284.074 76.2419 272.766 73.4503L251.132 68.1096C248.483 67.4557 248.483 63.6895 251.132 63.0355L272.766 57.6948C284.074 54.9033 292.903 46.0739 295.695 34.7658L301.035 13.132ZM260.492 7.99349C260.819 6.66884 262.702 6.66884 263.029 7.99349L263.441 9.66086C264.953 15.786 269.736 20.5685 275.861 22.0806L277.528 22.4922C278.853 22.8193 278.853 24.7024 277.528 25.0294L275.861 25.441C269.736 26.9531 264.953 31.7356 263.441 37.8608L263.029 39.5282C262.702 40.8528 260.819 40.8528 260.492 39.5282L260.081 37.8608C258.568 31.7356 253.786 26.9531 247.661 25.441L245.993 25.0294C244.669 24.7024 244.669 22.8193 245.993 22.4922L247.661 22.0806C253.786 20.5685 258.568 15.786 260.081 9.66086L260.492 7.99349Z" stroke="#1ED760" stroke-width="14"/>
<g clip-path="url(#clip0_1240_5)">
<path fill-rule="evenodd" clip-rule="evenodd" d="M228.96 183.16C182.88 155.8 105.84 152.92 61.92 166.6C54.72 168.76 47.52 164.44 45.36 157.96C43.2 150.76 47.52 143.56 54 141.4C105.12 126.28 189.36 129.16 242.64 160.84C249.12 164.44 251.28 173.08 247.68 179.56C244.08 184.6 235.44 186.76 228.96 183.16ZM227.52 223.48C223.92 228.52 217.44 230.68 212.4 227.08C173.52 203.32 114.48 196.12 69.12 210.52C63.36 211.96 56.88 209.08 55.44 203.32C54 197.56 56.88 191.08 62.64 189.64C115.2 173.8 180 181.72 224.64 209.08C228.96 211.24 231.12 218.44 227.52 223.48ZM210.24 263.08C207.36 267.4 202.32 268.84 198 265.96C164.16 245.08 121.68 240.76 71.28 252.28C66.24 253.72 61.92 250.12 60.48 245.8C59.04 240.76 62.64 236.44 66.96 235C121.68 222.76 169.2 227.8 206.64 250.84C211.68 253 212.4 258.76 210.24 263.08ZM144 55C64.8 55 0 119.8 0 199C0 278.2 64.8 343 144 343C223.2 343 288 278.2 288 199C288 119.8 223.92 55 144 55Z" fill="#1ED760"/>
</g>
<rect x="0.5" y="55.5" width="287" height="287" stroke="#1ED760"/>
<defs>
<clipPath id="clip0_1240_5">
<rect y="55" width="288" height="288" fill="white"/>
</clipPath>
</defs>
</svg>
