<svg width="494" height="494" viewBox="0 0 494 494" fill="none" xmlns="http://www.w3.org/2000/svg">
<rect width="494" height="494" rx="100" fill="#1ED760"/>
<path d="M393.035 74.132C393.689 71.4829 397.456 71.4829 398.11 74.132L403.45 95.7658C406.242 107.074 415.071 115.903 426.379 118.695L448.014 124.035C450.662 124.689 450.662 128.456 448.014 129.11L426.379 134.45C415.071 137.242 406.242 146.071 403.45 157.379L398.11 179.014C397.456 181.662 393.689 181.662 393.035 179.014L387.695 157.379C384.903 146.071 376.074 137.242 364.766 134.45L343.132 129.11C340.483 128.456 340.483 124.689 343.132 124.035L364.766 118.695C376.074 115.903 384.903 107.074 387.695 95.7658L393.035 74.132ZM352.492 68.9935C352.819 67.6688 354.702 67.6688 355.029 68.9935L355.441 70.6609C356.953 76.786 361.736 81.5685 367.861 83.0806L369.528 83.4922C370.853 83.8193 370.853 85.7024 369.528 86.0294L367.861 86.441C361.736 87.9531 356.953 92.7356 355.441 98.8608L355.029 100.528C354.702 101.853 352.819 101.853 352.492 100.528L352.081 98.8608C350.568 92.7356 345.786 87.9531 339.661 86.441L337.993 86.0294C336.669 85.7024 336.669 83.8193 337.993 83.4922L339.661 83.0806C345.786 81.5685 350.568 76.786 352.081 70.6609L352.492 68.9935Z" stroke="white" stroke-width="14"/>
<g clip-path="url(#clip0_1239_3175)">
<path fill-rule="evenodd" clip-rule="evenodd" d="M320.96 244.16C274.88 216.8 197.84 213.92 153.92 227.6C146.72 229.76 139.52 225.44 137.36 218.96C135.2 211.76 139.52 204.56 146 202.4C197.12 187.28 281.36 190.16 334.64 221.84C341.12 225.44 343.28 234.08 339.68 240.56C336.08 245.6 327.44 247.76 320.96 244.16ZM319.52 284.48C315.92 289.52 309.44 291.68 304.4 288.08C265.52 264.32 206.48 257.12 161.12 271.52C155.36 272.96 148.88 270.08 147.44 264.32C146 258.56 148.88 252.08 154.64 250.64C207.2 234.8 272 242.72 316.64 270.08C320.96 272.24 323.12 279.44 319.52 284.48ZM302.24 324.08C299.36 328.4 294.32 329.84 290 326.96C256.16 306.08 213.68 301.76 163.28 313.28C158.24 314.72 153.92 311.12 152.48 306.8C151.04 301.76 154.64 297.44 158.96 296C213.68 283.76 261.2 288.8 298.64 311.84C303.68 314 304.4 319.76 302.24 324.08ZM236 116C156.8 116 92 180.8 92 260C92 339.2 156.8 404 236 404C315.2 404 380 339.2 380 260C380 180.8 315.92 116 236 116Z" fill="white"/>
</g>
<defs>
<clipPath id="clip0_1239_3175">
<rect width="288" height="288" fill="white" transform="translate(92 116)"/>
</clipPath>
</defs>
</svg>
